PathFileType	4	(X/Y/Z)	/Users/itak/Documents/Research/Walk-IL/dataset/trc/00496_00183.trc
DataRate	CameraRate	NumFrames	NumMarkers	Units	OrigDataRate	OrigDataStartFrame	OrigNumFrames
100.000000	100.000000	4	53	mm	100.000000	458	734
Frame#	Time	RPSI			LPSI			L3			STRN			T10			C7			CLAV			RBAK			LBAK			LSHO			LUPA			LAEL			LAOL			LWTS			LWPS			LFRA			LIFD			LHPS			LHTS			RSHO			RUPA			RAEL			RAOL			RWTS			RWPS			RFRA			RIFD			RHTS			RHPS			RBHD			LFHD			RFHD			LBHD			LHIP			RHIP			RASI			LASI			LKNE			LTHI			LANK			LTIP			LTOE			LMT1			LMT5			LHEE			RKNE			RTHI			RANK			RTIP			RTOE			RMT1			RMT5			RHEE			
		X1	Y1	Z1	X2	Y2	Z2	X3	Y3	Z3	X4	Y4	Z4	X5	Y5	Z5	X6	Y6	Z6	X7	Y7	Z7	X8	Y8	Z8	X9	Y9	Z9	X10	Y10	Z10	X11	Y11	Z11	X12	Y12	Z12	X13	Y13	Z13	X14	Y14	Z14	X15	Y15	Z15	X16	Y16	Z16	X17	Y17	Z17	X18	Y18	Z18	X19	Y19	Z19	X20	Y20	Z20	X21	Y21	Z21	X22	Y22	Z22	X23	Y23	Z23	X24	Y24	Z24	X25	Y25	Z25	X26	Y26	Z26	X27	Y27	Z27	X28	Y28	Z28	X29	Y29	Z29	X30	Y30	Z30	X31	Y31	Z31	X32	Y32	Z32	X33	Y33	Z33	X34	Y34	Z34	X35	Y35	Z35	X36	Y36	Z36	X37	Y37	Z37	X38	Y38	Z38	X39	Y39	Z39	X40	Y40	Z40	X41	Y41	Z41	X42	Y42	Z42	X43	Y43	Z43	X44	Y44	Z44	X45	Y45	Z45	X46	Y46	Z46	X47	Y47	Z47	X48	Y48	Z48	X49	Y49	Z49	X50	Y50	Z50	X51	Y51	Z51	X52	Y52	Z52	X53	Y53	Z53	

459	4.58	-204.2173614501953	949.9494018554688	67.29344177246094	-143.7651672363281	951.017822265625	-41.17803955078125	-180.2119445800781	1019.859130859375	4.668499946594238	13.4979419708252	1181.606567382812	91.38005065917969	-200.7943267822266	1123.331909179688	0.9427494406700134	-165.0256805419922	1354.569458007812	24.99709510803223	-21.08403205871582	1276.373291015625	79.55243682861328	-241.1458282470703	1230.643310546875	82.80783081054688	-154.7718200683594	1302.937866210938	-66.64445495605469	-39.42470550537109	1349.584838867188	-98.57289123535156	-30.38944435119629	1224.49462890625	-163.0623779296875	-23.24178504943848	1015.655639648438	-191.2630157470703	-118.6647415161133	1011.642761230469	-158.4493103027344	36.64445877075195	818.7871704101562	-131.7445220947266	-23.93954849243164	792.5361938476562	-199.1610412597656	-6.249289512634277	941.261962890625	-190.9204711914062	18.3668212890625	661.8897094726562	-128.9555206298828	-7.950172901153564	735.747802734375	-187.7444915771484	44.554931640625	740.103515625	-149.4709320068359	-169.5243835449219	1344.42724609375	183.0546264648438	-205.6662445068359	1275.26708984375	228.4067077636719	-200.7854614257812	1007.984802246094	275.4454650878906	-239.2718048095703	988.3264770507812	225.1024780273438	-77.89976501464844	814.3250122070312	268.4752502441406	-159.0710144042969	788.7005004882812	300.20849609375	-192.9731903076172	953.330810546875	283.8577270507812	-66.54584503173828	656.2371215820312	270.6586608886719	-61.56254959106445	722.095458984375	296.6988220214844	-132.0328063964844	716.715087890625	306.7777404785156	-173.9682006835938	1498.324951171875	115.3434448242188	-3.7587730884552	1578.92626953125	47.79680252075195	-62.85012054443359	1566.918212890625	159.9783477783203	-112.4277877807617	1507.863159179688	-31.07256698608398	6.890995025634766	874.2548217773438	-113.5060806274414	-163.7626037597656	854.7910766601562	223.7808074951172	-42.75844192504883	901.9873046875	210.1023559570312	61.4553108215332	906.0111694335938	-9.589123725891113	-72.34712982177734	458.2435302734375	-90.45890045166016	-13.90448951721191	609.6668701171875	-92.15689086914062	-300.4557800292969	97.38558197021484	-202.1957702636719	-145.4702758789062	325.8743591308594	-131.6649322509766	-172.7534790039062	35.4592170715332	-68.32073211669922	-248.8761901855469	50.10630035400391	-69.42573547363281	-208.3989105224609	50.75654602050781	-166.7511749267578	-368.0810546875	112.8366012573242	-168.8471374511719	-37.42922592163086	484.5830688476562	233.2977905273438	-107.9309768676758	734.5184936523438	253.1394653320312	-24.26668548583984	46.81795883178711	225.6479797363281	2.497936010360718	341.3701477050781	241.1363525390625	173.8091430664062	54.73492431640625	272.2730102539062	132.1414642333984	48.67609405517578	209.9875793457031	70.47245025634766	49.18137359619141	285.0591430664062	-48.06980133056641	33.05371475219727	160.2288513183594	
460	4.59	-199.5541076660156	950.5476684570312	72.07180023193359	-139.0321960449219	951.614501953125	-36.31850814819336	-175.5194702148438	1020.319702148438	9.425108909606934	17.70879173278809	1182.416015625	96.48113250732422	-196.2999267578125	1123.777221679688	5.591704368591309	-160.9498901367188	1355.076049804688	29.50989151000977	-16.96200180053711	1277.110961914062	84.43659210205078	-236.9523010253906	1231.119750976562	87.34445953369141	-150.4322967529297	1303.3720703125	-62.07762908935547	-35.08129119873047	1350.117065429688	-93.79353332519531	-25.98116111755371	1224.975341796875	-158.1995086669922	-19.62814712524414	1016.213623046875	-186.3067474365234	-114.8387908935547	1012.265930175781	-152.6827850341797	41.31496810913086	819.6421508789062	-126.9309310913086	-20.04283905029297	792.9332885742188	-193.4678344726562	-2.66359543800354	941.7244262695312	-185.9868011474609	23.76721572875977	662.7891845703125	-123.2445526123047	-3.728355169296265	736.1981201171875	-182.0268859863281	49.44723129272461	741.025146484375	-144.5321044921875	-165.6745452880859	1345.155151367188	187.5685119628906	-201.7713775634766	1275.974487304688	232.9593200683594	-196.3012084960938	1008.699890136719	280.14697265625	-234.8296203613281	988.9482421875	229.8701629638672	-73.19901275634766	815.2106323242188	272.9274597167969	-154.1585998535156	789.4459838867188	304.8501892089844	-188.3441009521484	954.0556030273438	288.5682678222656	-61.37246704101562	657.2260131835938	275.0809326171875	-56.48240661621094	723.0460815429688	301.1251525878906	-126.8833923339844	717.5125122070312	311.3419494628906	-170.4520263671875	1498.832763671875	119.4741287231445	-0.5407171249389648	1579.876342773438	51.64112091064453	-59.62141036987305	1568.055297851562	163.8489837646484	-108.907829284668	1508.0576171875	-26.98465919494629	11.82736110687256	874.896484375	-108.4219665527344	-159.2732238769531	855.4365844726562	229.0760955810547	-38.2951774597168	902.6847534179688	215.2541351318359	66.05183410644531	906.6834106445312	-4.360195636749268	-66.13582611083984	458.33349609375	-85.26933288574219	-7.975461959838867	610.0652465820312	-86.87815856933594	-297.8815612792969	101.0015029907227	-201.1354522705078	-140.300537109375	327.1011352539062	-127.9056549072266	-172.5619049072266	35.48421859741211	-68.25800323486328	-247.8838958740234	50.95804595947266	-68.82547760009766	-207.1869964599609	51.68714141845703	-166.390380859375	-365.2102355957031	117.4122314453125	-167.6029663085938	-34.21870040893555	484.3310852050781	236.2440032958984	-104.8066635131836	734.2247924804688	256.5449829101562	-23.85975456237793	46.93357467651367	225.7677001953125	5.113911628723145	340.8955383300781	243.0257415771484	174.6680297851562	52.81441879272461	272.4595336914062	132.5502319335938	47.67624282836914	210.0840148925781	71.03010559082031	48.63823699951172	285.1665649414062	-47.91452789306641	33.37795639038086	160.3992919921875	
461	4.600000000000001	-194.9175720214844	951.1251220703125	76.89682006835938	-134.3737182617188	952.1669311523438	-31.43930244445801	-170.8884582519531	1020.761352539062	14.21780395507812	21.91073989868164	1183.185302734375	101.5512008666992	-191.8312530517578	1124.187377929688	10.2824125289917	-156.8792114257812	1355.560791015625	34.02565765380859	-12.84143161773682	1277.818481445312	89.29898834228516	-232.7700653076172	1231.583129882812	91.91707611083984	-146.1406860351562	1303.778076171875	-57.50266647338867	-30.77735710144043	1350.603393554688	-89.03511047363281	-21.57109832763672	1225.38623046875	-153.2953948974609	-15.74116992950439	1016.694763183594	-181.2362518310547	-110.8218688964844	1012.773498535156	-147.0450439453125	46.035400390625	820.4458618164062	-121.862678527832	-15.75604438781738	793.3068237304688	-187.8072204589844	1.22869884967804	942.1505126953125	-180.9117126464844	29.28445434570312	663.6197509765625	-117.4698028564453	0.8463281989097595	736.642333984375	-176.3267974853516	54.48438262939453	741.897705078125	-139.3592071533203	-161.8010559082031	1345.855346679688	192.0950622558594	-197.8537902832031	1276.658447265625	237.5281829833984	-191.8751220703125	1009.382873535156	284.8418884277344	-230.4303436279297	989.5556640625	234.6212463378906	-68.55431365966797	816.0741577148438	277.4150390625	-149.3115386962891	790.1580200195312	309.4899291992188	-183.7952880859375	954.75390625	293.2720336914062	-56.25516891479492	658.1875	279.5256652832031	-51.47251892089844	723.9715576171875	305.5851745605469	-121.8186721801758	718.2796020507812	315.9027709960938	-166.9239501953125	1499.313720703125	123.5813980102539	2.690360546112061	1580.793334960938	55.46825408935547	-56.39497756958008	1569.179321289062	167.6954803466797	-105.3610992431641	1508.20263671875	-22.9139518737793	16.68094825744629	875.5076293945312	-103.354248046875	-154.7850341796875	856.0567016601562	234.3531341552734	-33.8265380859375	903.3500366210938	220.3912048339844	70.61160278320312	907.3501586914062	0.8254225254058838	-59.63570022583008	458.3201599121094	-80.05486297607422	-1.893201589584351	610.3902587890625	-81.60444641113281	-295.1735229492188	104.6855163574219	-199.9660034179688	-134.9107208251953	328.31884765625	-124.1062545776367	-172.3227996826172	35.49843978881836	-68.18095397949219	-246.8061218261719	51.86925506591797	-68.200439453125	-205.9163360595703	52.66729354858398	-165.9792175292969	-362.1217346191406	122.1368103027344	-166.1826629638672	-31.26321029663086	484.0284729003906	239.14453125	-101.9099349975586	733.885009765625	260.002197265625	-23.48310852050781	47.03712463378906	225.8605651855469	7.490848541259766	340.38330078125	244.8803100585938	175.4713745117188	50.94086074829102	272.6678771972656	132.9211120605469	46.73897933959961	210.1808624267578	71.55597686767578	48.12093353271484	285.2908020019531	-47.75988388061523	33.66507720947266	160.5309295654297	
462	4.61	-190.3108367919922	951.6879272460938	81.75032043457031	-129.7950897216797	952.678466796875	-26.55910873413086	-166.3356018066406	1021.183654785156	19.03481674194336	26.09834480285645	1183.913940429688	106.5662231445312	-187.3937072753906	1124.565673828125	15.01270389556885	-152.8233032226562	1356.025268554688	38.53964614868164	-8.729158401489258	1278.497192382812	94.12195587158203	-228.5997924804688	1232.03173828125	96.51895904541016	-141.9128265380859	1304.15869140625	-52.92773818969727	-26.53088569641113	1351.048095703125	-84.3134765625	-17.17663955688477	1225.7353515625	-148.3720703125	-11.57656955718994	1017.097229003906	-176.0661926269531	-106.6151809692383	1013.16259765625	-141.5697479248047	50.7890625	821.196533203125	-116.5440673828125	-11.0795202255249	793.6705932617188	-182.21337890625	5.438480854034424	942.5491943359375	-175.7083587646484	34.87272262573242	664.3729858398438	-111.6791763305664	5.76995849609375	737.0930786132812	-170.6883087158203	59.64504241943359	742.7138671875	-133.9768676757812	-157.9022827148438	1346.527587890625	196.6294403076172	-193.90869140625	1277.318603515625	242.1089782714844	-187.4992370605469	1010.036071777344	289.5295104980469	-226.0673370361328	990.1494750976562	239.3552856445312	-63.96925735473633	816.90576171875	281.9335327148438	-144.5303039550781	790.8353881835938	314.1275939941406	-179.321044921875	955.4268798828125	297.968505859375	-51.21588134765625	659.1080932617188	283.9892578125	-46.54268646240234	724.861328125	310.0733337402344	-116.8521118164062	719.0128784179688	320.4645385742188	-163.381591796875	1499.774169921875	127.6625213623047	5.938741683959961	1581.6728515625	59.27599334716797	-53.16249847412109	1570.279907226562	171.5204162597656	-101.7932968139648	1508.312866210938	-18.86168670654297	21.4319953918457	876.0852661132812	-98.32501220703125	-150.3013763427734	856.6456298828125	239.5968933105469	-29.35360336303711	903.9822998046875	225.4957580566406	75.12433624267578	908.005859375	5.947869300842285	-52.8614616394043	458.2204284667969	-74.85814666748047	4.335118770599365	610.6461181640625	-76.34640502929688	-292.3709716796875	108.4292602539062	-198.6901702880859	-129.3090362548828	329.5383911132812	-120.2961273193359	-172.0218353271484	35.49032211303711	-68.08110046386719	-245.63427734375	52.85937118530273	-67.55010986328125	-204.5573120117188	53.72574996948242	-165.5006866455078	-358.8057861328125	127.0265960693359	-164.5784149169922	-28.53551292419434	483.6931457519531	242.0223236083984	-99.17469024658203	733.5302124023438	263.5747985839844	-23.14273262023926	47.11617660522461	225.9435119628906	9.634697914123535	339.8486633300781	246.7295074462891	176.2077789306641	49.11953735351562	272.9030151367188	133.2667694091797	45.88146591186523	210.2982635498047	72.04449462890625	47.60005187988281	285.4476623535156	-47.60735702514648	33.92142105102539	160.6384735107422	
